HIERARCHY
ROOT Hips
{
	OFFSET	0	0	0
	CHANNELS 6  Xposition Yposition Zposition Xrotation Yrotation Zrotation
	JOINT Spine
	{
		OFFSET	0	3.19623	0.642429
		CHANNELS 3  Xrotation Yrotation Zrotation
		JOINT Spine1
		{
			OFFSET	0	5.47858	-0.978319
			CHANNELS 3  Xrotation Yrotation Zrotation
			JOINT Spine2
			{
				OFFSET	0	4.15296	0.445135
				CHANNELS 3  Xrotation Yrotation Zrotation
				JOINT Spine3
				{
					OFFSET	0	4.96986	1.47726
					CHANNELS 3  Xrotation Yrotation Zrotation
					JOINT Spine4
					{
						OFFSET	0	7.35696	-0.753305
						CHANNELS 3  Xrotation Yrotation Zrotation
						JOINT Neck
						{
							OFFSET	0	3.51216	-2.46047
							CHANNELS 3  Xrotation Yrotation Zrotation
							JOINT Head
							{
								OFFSET	0	4.21655	-1.26203
								CHANNELS 3  Xrotation Yrotation Zrotation
								End Site
								{
									OFFSET	0	8.79508	-0.425569
								}
							}
						}
					}
					JOINT LeftShoulder
					{
						OFFSET	-2.11317	8.94183	-4.21655
						CHANNELS 3  Xrotation Yrotation Zrotation
						JOINT LeftArm
						{
							OFFSET	-4.62126	-1.26203	1.61913
							CHANNELS 3  Xrotation Yrotation Zrotation
							JOINT LeftForeArm
							{
								OFFSET	-15.9392	-0.727493	1.13773
								CHANNELS 3  Xrotation Yrotation Zrotation
								JOINT LeftHand
								{
									OFFSET	-12.8901	-0.890778	0.920079
									CHANNELS 3  Xrotation Yrotation Zrotation
									End Site
									{
										OFFSET	-4.70424	-0.325089	0.335762
									}
								}
							}
						}
					}
					JOINT RightShoulder
					{
						OFFSET	2.11317	8.94183	-4.21655
						CHANNELS 3  Xrotation Yrotation Zrotation
						JOINT RightArm
						{
							OFFSET	4.62126	-1.26203	1.61913
							CHANNELS 3  Xrotation Yrotation Zrotation
							JOINT RightForeArm
							{
								OFFSET	15.9392	-0.727493	1.13773
								CHANNELS 3  Xrotation Yrotation Zrotation
								JOINT RightHand
								{
									OFFSET	12.8901	-0.890778	0.920079
									CHANNELS 3  Xrotation Yrotation Zrotation
									End Site
									{
										OFFSET	4.70424	-0.325089	0.335762
									}
								}
							}
						}
					}
				}
			}
		}
	}
	JOINT LeftUpLeg
	{
		OFFSET	-4.36218	-1.59811	-0.321215
		CHANNELS 3  Xrotation Yrotation Zrotation
		JOINT LeftLeg
		{
			OFFSET	-1.01617	-19.9114	-0.311258
			CHANNELS 3  Xrotation Yrotation Zrotation
			JOINT LeftFoot
			{
				OFFSET	-0.990294	-18.2543	1.56987
				CHANNELS 3  Xrotation Yrotation Zrotation
				JOINT LeftToeBase
				{
					OFFSET	0	-2.30168	-6.11325
					CHANNELS 3  Xrotation Yrotation Zrotation
					End Site
					{
						OFFSET	0	-0.92067	-3.68268
					}
				}
			}
		}
	}
	JOINT RightUpLeg
	{
		OFFSET	4.36218	-1.59811	-0.321215
		CHANNELS 3  Xrotation Yrotation Zrotation
		JOINT RightLeg
		{
			OFFSET	1.01617	-19.9114	-0.311258
			CHANNELS 3  Xrotation Yrotation Zrotation
			JOINT RightFoot
			{
				OFFSET	0.990294	-18.2543	1.56987
				CHANNELS 3  Xrotation Yrotation Zrotation
				JOINT RightToeBase
				{
					OFFSET	0	-2.30168	-6.11325
					CHANNELS 3  Xrotation Yrotation Zrotation
					End Site
					{
						OFFSET	0	-0.92067	-3.68268
					}
				}
			}
		}
	}
}
MOTION
Frames: 20
Frame Time: 0.033333
 -1.61887 45.4966 -41.5172 7.85465 -113.621 -0.238186 179.995 179.894 -177.198 2.29861 0.211942 4.66933 1.62922 0.635825 4.66959 179.634 179.894 -177.198 5.21465 0.0848833 0.929994 10.6729 1.9128 -23.1842 4.60955 34.4536 -6.54722 170.132 -164.278 158.488 64.0711 32.7159 9.45732 104.917 -35.5872 113.974 -0 38.3736 -3.24283 169.694 167.788 -157.772 111.861 1.41589 -13.9772 47.0214 33.5801 -30.7771 -0 -5.29695 -11.0315 1.35942 -12.2417 -6.57441 163.582 177.944 178.056 162.348 -177.637 -170.72 2.6828 0 0 33.7548 -5.08999 12.7762 117.787 -172.517 -176.51 157.327 -179.899 172.171 2.66909 0 0
 -1.72159 45.4586 -39.8205 8.74934 -114.747 1.67878 179.997 179.937 -177.173 2.36088 0.125663 4.71163 1.67466 0.37699 4.71172 179.581 179.937 -177.173 5.44815 0.0894768 0.938066 11.4371 1.88572 -22.4147 4.79046 33.6901 -6.4085 170.027 -164.464 158.261 64.7768 34.0602 8.85001 104.689 -36.1531 113.799 -0 38.6576 -3.56172 170.166 167.718 -158.84 114.284 1.20781 -13.3625 46.8347 33.1175 -30.4588 -0 -5.48334 -11.4208 1.41807 -11.0438 -8.83065 163.359 176.289 178.536 160.209 -178.314 -171.029 2.71072 0 0 32.7438 -5.70286 8.38108 117.369 -170.404 -176.004 161.971 -179.789 172.285 2.58864 0 0
 -1.81618 45.8066 -37.6933 8.84283 -114.751 2.75445 179.995 179.908 -177.068 2.45039 0.183153 4.88675 1.7294 0.54946 4.88695 179.57 179.908 -177.068 5.64891 0.0962117 0.972598 12.1192 2.05224 -21.5602 4.92674 33.0029 -6.20777 169.529 -165.092 157.16 67.019 34.3668 7.19541 105.088 -36.641 114.033 -0 38.6192 -4.11656 170.448 167.866 -159.492 115.816 0.917754 -13.05 46.9636 33.0404 -30.5944 -0 -5.76447 -12.2636 2.36059 -9.98898 -9.84588 162.485 174.633 178.799 156.306 -178.471 -170.815 2.74227 0 0 29.5409 -7.24575 3.83822 120.23 -168.966 -175.569 162.827 -179.495 172.522 2.53639 0 0
 -1.91142 46.6524 -36.2203 8.91545 -115.008 3.73662 179.992 179.844 -177.168 2.51444 0.311739 4.71953 1.75464 0.935216 4.72009 179.561 179.844 -177.168 5.80414 0.0954627 0.939054 12.4178 1.55358 -21.4293 5.01846 32.2711 -6.24336 169.72 -165.637 157.644 69.1223 35.0718 5.79556 105.202 -37.3014 113.748 -0 38.58 -4.63391 170.714 167.909 -160.095 115.555 -0.393673 -12.7481 46.7323 32.7536 -30.0451 -0 -6.52955 -13.4216 3.41974 -9.16576 -10.0064 162.015 173.674 -179.596 153.616 -178.458 -170.258 2.75841 0 0 26.5771 -8.20481 1.33842 125.263 -168.977 -175.75 161.191 -178.878 172.829 2.50383 0 0
 -2.05015 47.3105 -34.6481 8.918 -115.242 3.5035 179.99 179.814 -176.894 2.52599 0.370521 5.17626 1.73607 1.11156 5.17713 179.528 179.814 -176.894 5.91169 0.106635 1.02972 12.5045 0.715545 -21.625 5.07529 31.4635 -6.38198 169.64 -164.248 157.352 71.2233 34.4994 5.84002 106.289 -37.3895 115.377 -0 38.3084 -5.05228 170.795 168.329 -160.315 114.735 -0.62345 -12.8973 48.1789 34.0756 -31.979 -0 -7.16804 -15.2592 5.1965 -7.76191 -8.47213 161.016 172.865 -175.431 154.047 -179.06 -170.123 2.73959 0 0 23.573 -8.32767 -0.538671 129.9 -169.538 -176.106 160.605 -178.457 172.714 2.46947 0 0
 -1.90772 48.1818 -33.5341 9.41297 -113.481 5.46349 179.997 179.938 -177.315 2.49094 0.123063 4.47583 1.76189 0.36919 4.47591 179.535 179.938 -177.315 5.80127 0.0904889 0.890579 11.8778 -0.384761 -22.3832 4.94534 30.7679 -6.62048 169.484 -162.88 156.902 73.1771 34.2094 5.64812 106.581 -37.9339 115.747 -0 38.0491 -5.50909 171.177 168.735 -161.202 113.086 -1.19726 -13.1776 49.9434 35.5304 -34.6486 -0 -7.75312 -16.9118 9.5392 -4.91075 -4.17034 160.598 172.428 -168.96 156.559 179.951 -170.793 2.72021 0 0 19.5046 -7.84623 -2.37175 136.92 -171.971 -178.07 157.806 -178.922 171.489 2.4164 0 0
 -2.01818 48.3578 -32.3609 10.533 -113.579 8.3619 179.999 179.962 -177.809 2.51883 0.0761439 3.65234 1.79688 0.228432 3.65236 179.544 179.962 -177.809 5.82635 0.0741564 0.726693 11.6672 -1.32129 -22.7685 4.9193 29.946 -6.783 169.474 -162.345 156.845 73.8218 34.3568 5.77045 107.204 -38.1828 116.411 -0 37.7591 -5.84072 171.191 168.877 -161.246 111.979 -1.5563 -13.4567 51.3574 36.4909 -36.4359 -0 -7.97258 -18.1695 10.25 -4.67591 -5.22676 160.774 172.124 -170.776 156.189 179.978 -170.907 2.70833 0 0 17.6095 -8.68537 -3.95225 140.516 -173.655 179.139 157.382 -178.831 170.567 2.36386 0 0
 -1.77096 47.9531 -30.6399 9.32221 -114.339 8.92996 179.999 179.968 -178.116 2.52985 0.063172 3.13923 1.84847 0.189516 3.13924 179.665 179.968 -178.116 5.56521 0.0608899 0.624886 10.9953 -1.20226 -22.522 4.6315 29.3666 -6.57725 169.186 -161.734 156.14 73.7477 34.1241 6.65316 109.885 -36.7308 121.485 -0 37.2879 -5.6274 171.184 168.846 -161.229 112.585 -0.985304 -14.2049 53.0626 37.3635 -39.0177 -0 -7.76868 -19.322 7.74535 -4.61632 -8.83252 160.487 172.337 -173.811 156.002 179.975 -171.079 2.68985 0 0 16.5965 -10.7294 -3.28463 140.695 -174.852 174.912 161.592 -178.213 171.091 2.3831 0 0
 -1.76887 47.409 -29.0545 7.56367 -115.197 8.3771 180 179.989 -178.411 2.39015 0.0216425 2.64805 1.80868 0.0649274 2.64805 179.855 179.989 -178.411 4.85309 0.0448069 0.527711 9.22941 -0.636674 -22.4674 3.96776 29.0791 -6.24194 169.327 -160.928 156.429 71.7667 34.4183 9.42301 114.452 -33.0024 130.293 -0 36.6026 -5.03258 170.625 169.107 -160.006 112.301 0.121065 -15.6405 54.4574 38.1961 -41.0595 -0 -7.92618 -20.0003 5.86664 -4.07747 -11.4104 160.567 172.269 -175.377 156.309 180 -171.376 2.67017 0 0 15.8307 -11.6342 -3.22176 141.762 -176.017 172.712 165.264 -178.656 170.793 2.35846 0 0
 -1.76874 47.1674 -27.6407 6.55227 -116.388 7.36566 0.000632874 -0.0248367 1.45966 2.26652 -0.0496448 2.43277 1.75319 -0.148934 2.43277 179.958 -179.975 -178.54 4.37747 0.0371381 0.485134 8.08273 -0.332191 -22.3498 3.53067 28.6986 -6.00956 169.909 -160.321 157.755 67.5194 35.7926 13.8034 119.306 -26.6357 141.643 -0 36.1324 -4.09121 169.941 169.331 -158.49 111.259 1.32218 -16.9861 55.7705 39.0137 -42.6374 -0 -8.12652 -20.5294 5.14155 -4.02878 -12.0376 159.136 172.55 -176.503 158.564 -179.542 -171.295 2.65162 0 0 16.1844 -12.2033 -1.64633 144.32 -176.61 172.065 166.566 -179.526 170.097 2.29735 0 0
 -1.5483 46.7907 -26.4928 4.76374 -119.03 5.08069 0.000864445 -0.0373652 1.3253 2.14751 -0.074695 2.20884 1.67765 -0.224085 2.20885 0.00377464 -0.0373652 1.3253 4.04405 0.0311555 0.440667 7.33117 -0.077508 -22.1802 3.23574 28.4098 -5.82809 170.485 -161.441 159.132 61.2167 37.8976 18.101 122.302 -19.831 151.635 -0 36.29 -3.1972 169.507 168.389 -157.404 109.497 3.05881 -19.8595 56.2619 39.3094 -43.0865 -0 -8.24084 -20.9209 4.69154 -4.13629 -11.7362 156.085 172.491 -177.254 159.962 -179.489 -171.498 2.65451 0 0 16.3172 -12.8264 -0.0386659 147.556 -176.757 171.874 166.147 179.964 169.352 2.22883 0 0
 -1.4242 46.5863 -25.6875 2.82012 -123.162 2.61802 0.00156445 -0.0742057 1.20777 1.97177 -0.148353 2.01295 1.63162 -0.445058 2.013 0.260865 -0.0742057 1.20777 3.1095 0.0218385 0.401995 5.03656 0.89574 -22.0759 2.38541 28.426 -5.39812 170.51 -162.885 159.264 54.3015 39.2794 22.1463 122.943 -14.5524 158.638 -0 36.7966 -1.93513 169.408 167.389 -157.079 107.949 6.5447 -24.3032 58.3895 40.3004 -45.9646 -0 -8.21154 -21.6317 5.06189 -4.96512 -9.9035 151.969 172.055 -179.38 159.289 -179.797 -172.096 2.6438 0 0 17.6951 -13.4017 1.44413 153.255 -175.823 174.25 159.56 179.964 168.638 2.13557 0 0
 -1.50504 46.5764 -24.6205 0.347356 -129.166 -0.308241 0.00243526 -0.128951 1.08192 1.57342 -0.257819 1.80321 1.43735 -0.773458 1.80335 0.589078 -0.128951 1.08192 1.58781 0.00999303 0.360499 1.3735 2.39678 -21.8961 1.03668 28.4731 -4.73604 170.367 -166.164 159.163 47.0359 40.0406 24.8214 121.11 -13.5581 158.296 -0 37.1128 -0.338396 169.311 167.352 -156.851 106.053 11.2219 -29.5647 61.2797 41.4658 -50.0509 -0 -8.41119 -22.1724 4.54627 -5.94562 -7.04058 147.781 171.846 177.893 157.582 179.919 -172.561 2.63289 0 0 15.6311 -13.3837 -0.832583 151.017 -175.55 176.796 161.302 179.545 168.759 2.18259 0 0
 -1.04631 46.4864 -22.9262 177.933 -41.0736 178.783 0.0029772 -0.215715 0.790723 1.30938 -0.431357 1.3179 1.32689 -1.29407 1.3182 0.862262 -0.215715 0.790723 0.449531 0.00206793 0.263564 178.693 176.276 158.767 0.0159208 28.3888 -4.10582 170.416 -169.637 159.591 40.0888 40.7132 28.1527 119.168 -12.4085 157.525 -0 37.1818 1.34542 168.968 166.554 -155.983 105.741 16.0704 -35.1612 63.1955 41.9793 -52.0414 -0 -8.40781 -21.5699 3.15292 -7.75679 -3.48557 142.34 171.63 174.769 157.871 179.3 -173.751 2.70165 0 0 12.1019 -12.2039 -4.87061 149.431 -175.708 179.94 161.192 178.391 168.639 2.22131 0 0
 -0.306108 46.7879 -21.8606 176.107 -32.4668 177.327 0.00198828 -0.171165 0.665528 0.944874 -0.342289 1.10923 1.192 -1.02687 1.10939 1.32908 -0.171165 0.665528 178.676 -179.995 -179.778 174.239 174.698 158.98 178.409 151.614 176.611 170.453 -173.837 160.159 32.1686 41.3551 31.1821 116.961 -11.442 156.814 -0 37.5665 3.49971 169.395 166.053 -156.927 106.937 19.4523 -39.307 64.6258 42.1563 -54.1149 -0 -8.37626 -20.8356 7.14095 -7.46822 1.88154 133.648 171.241 174.242 156.939 179.351 -173.606 2.66825 0 0 8.10092 -10.8288 -6.34743 150.336 -175.528 -176.576 158.472 178.157 168.725 2.23913 0 0
 0.406046 47.1443 -20.0865 174.295 -24.9203 176.278 0.000966119 -0.107012 0.517259 0.69407 -0.214009 0.862102 1.13097 -0.642028 0.86215 1.75292 -0.107012 0.517259 177.217 -179.992 -179.828 170.567 173.194 159.479 177.067 151.442 177.292 170.604 -177.514 161.001 25.2597 41.7736 33.9389 114.955 -10.3663 156.395 -0 37.7653 5.54607 169.62 166.348 -157.473 108.206 21.9198 -42.3999 65.5366 42.1902 -55.3653 -0 -8.41021 -19.7807 12.8359 -5.784 5.73325 125.289 171.359 174.844 157.947 179.494 -173.38 2.66422 0 0 3.07495 -8.75009 -7.01136 152.209 -176.679 -174.721 157.154 177.209 168.562 2.26324 0 0
 0.967925 47.6942 -18.9423 173.802 -15.7983 174.943 0.000837429 -0.06663 0.720076 0.372485 -0.133241 1.20013 0.992887 -0.399724 1.20015 2.09176 -0.06663 0.720076 175.82 -179.983 -179.761 167.113 171.807 160.19 175.806 151.359 177.969 171.746 -179.272 163.654 19.6774 42.1393 38.0938 112.936 -10.271 156.116 -0 37.9096 7.33846 169.672 166.619 -157.615 110.598 25.2313 -44.8683 66.2372 42.0453 -56.7431 -0 -8.51602 -18.4929 23.9688 -2.22741 8.14302 118.738 171.347 176.758 157.401 179.92 -171.79 2.50384 0 0 179.351 -173.11 174.715 155.814 -177.771 -173.071 154.835 177.304 168.713 2.27119 0 0
 1.64199 47.8055 -17.2339 174.629 -6.98436 175.145 0.00118754 -0.0872573 0.779728 0.467315 -0.174486 1.29955 1.24338 -0.523458 1.2996 2.61454 -0.0872573 0.779728 174.777 -179.976 -179.741 164.351 170.284 162.302 174.755 151.315 178.919 173.224 179.962 166.761 129.908 -128.867 -153.959 164.32 -65.8529 152.396 -0 1.29109 -109.096 170.136 168.833 -158.88 114.598 28.8849 -44.8178 66.8202 41.8268 -57.626 -0 -8.7338 -17.1827 28.3106 0.908334 5.93926 115.958 171.972 179.334 156.887 -179.998 -171.27 2.463 0 0 176.391 -175.09 176.337 158.953 -179.611 -172.246 155.004 176.735 168.437 2.28213 0 0
 2.25824 47.8669 -15.687 175.66 -3.35071 174.439 0.00149761 -0.0948176 0.904891 0.634947 -0.189593 1.50816 1.50473 -0.568779 1.50822 3.00088 -0.0948176 0.904891 174.191 -179.969 -179.7 162.728 169.199 164.626 174.125 151.298 179.754 174.036 177.813 168.617 129.033 -130.373 -152.996 157.276 -70.2815 157.791 -0 0.881874 -109.504 171.003 171.624 -161.104 119.09 32.2128 -43.2425 68.6652 41.8087 -59.9548 -0 -8.53809 -16.1618 33.823 3.78311 2.28942 116.392 172.888 -177.861 156.971 -179.986 -170.752 2.40646 0 0 173.675 -176.481 178.179 162.305 178.803 -171.575 156.042 177.073 168.204 2.29063 0 0
 2.52565 47.654 -14.5871 177.297 0.282924 174.826 0.00155912 -0.10127 0.882038 0.919364 -0.202498 1.47007 1.7546 -0.607493 1.47014 3.08554 -0.10127 0.882038 174.531 -179.972 -179.707 163.604 168.572 167.193 174.353 151.168 -179.628 175.616 176.979 171.743 130.056 -130.4 -151.136 151.364 -72.7103 152.228 -0 0.551781 -109.05 172.373 173.866 -164.306 124.26 34.6924 -41.9199 71.2006 41.6878 -63.1901 -0 -8.08446 -15.2708 37.5009 5.4348 -1.01593 119.936 172.743 -176.433 156.737 -179.977 -170.617 2.34038 0 0 172.548 -178.115 178.987 165.163 177.092 -171.787 159.226 177.554 167.824 2.315 0 0
